<?xml version="1.0" encoding="UTF-8" standalone="no"?>
<!-- Created with Inkscape (http://www.inkscape.org/) -->

<svg
   width="700mm"
   height="297mm"
   viewBox="0 0 700 297"
   version="1.1"
   id="svg1434"
   inkscape:version="1.2.2 (732a01da63, 2022-12-09)"
   sodipodi:docname="LOGO SVG FILE.svg"
   xmlns:inkscape="http://www.inkscape.org/namespaces/inkscape"
   xmlns:sodipodi="http://sodipodi.sourceforge.net/DTD/sodipodi-0.dtd"
   xmlns="http://www.w3.org/2000/svg"
   xmlns:svg="http://www.w3.org/2000/svg">
  <sodipodi:namedview
     id="namedview1436"
     pagecolor="#ffffff"
     bordercolor="#000000"
     borderopacity="0.25"
     inkscape:showpageshadow="2"
     inkscape:pageopacity="0.0"
     inkscape:pagecheckerboard="0"
     inkscape:deskcolor="#d1d1d1"
     inkscape:document-units="mm"
     showgrid="false"
     inkscape:zoom="0.45254834"
     inkscape:cx="735.83299"
     inkscape:cy="346.92426"
     inkscape:window-width="1920"
     inkscape:window-height="1017"
     inkscape:window-x="-8"
     inkscape:window-y="-8"
     inkscape:window-maximized="1"
     inkscape:current-layer="layer1" />
  <defs
     id="defs1431" />
  <g
     inkscape:label="Layer 1"
     inkscape:groupmode="layer"
     id="layer1">
    <g
       id="g2420"
       style="fill:#000000">
      <path
         id="path40176"
         style="font-size:22.4971px;line-height:1.25;font-family:'Elemental End';-inkscape-font-specification:'Elemental End';text-align:center;text-anchor:middle;fill:#000000;fill-opacity:1;fill-rule:evenodd;stroke-width:65.7051;stroke-miterlimit:12.5;stroke-dasharray:197.115, 65.7051;paint-order:fill markers stroke"
         d="m 124.56261,112.12054 v 31.53109 h 0.0442 v 0.43892 c 0,1.45037 0.20312,2.13833 0.82484,3.03762 l 0.80939,1.16318 -0.70739,1.03644 c -0.87253,1.27242 -1.19223,4.43126 -0.60759,6.04536 v 0 l 0.40182,1.12851 5.73684,-4.23308 c 8.06875,-5.93523 7.98573,-5.87398 7.98927,-8.17803 l 0.001,-0.43892 h 0.053 v 0.0455 l 20.90598,41.18193 h 16.39449 v -0.049 l 20.90686,-41.18074 8.49001,-16.97656 h 49.99374 v -14.55215 h -42.71672 -15.67474 -0.43274 l -28.76366,56.6056 -28.76366,-56.6056 z m 14.00694,37.95659 c -0.2826,0.0309 -3.04725,1.93482 -6.29145,4.32873 -6.88005,5.07819 -7.71549,6.01303 -7.7177,8.63232 0,0.85363 0.16338,1.98855 0.35767,2.5224 v 0 c 0.19429,0.53337 0.42832,0.96911 0.42832,0.96832 0.0442,-7.1e-4 2.87681,-2.06707 6.30601,-4.59173 7.30793,-5.40583 7.54196,-5.6641 7.30793,-9.36033 -0.0839,-1.2812 -0.24727,-2.40424 -0.37533,-2.49609 -0.004,-0.003 0,-0.004 0,-0.004 z m -0.004,10.33465 c -0.27819,-0.004 -3.15279,1.9402 -6.53784,4.42675 -7.28541,5.35338 -7.70004,5.84705 -7.38653,8.869 0.10597,0.96085 0.34442,2.04879 0.5365,2.41838 0.34884,0.66098 0.45084,0.60256 6.38859,-3.7501 7.38476,-5.39449 7.60952,-5.70853 7.38432,-9.2181 -0.0971,-1.37062 -0.26052,-2.60485 -0.3665,-2.73997 -0.004,-0.004 0,-0.004 0,-0.004 z m 0.0795,10.15652 c -0.43274,0.10642 -9.82398,6.89661 -11.12086,8.04773 -0.64381,0.57188 -0.63586,0.58804 1.84663,3.5744 v 0 c 2.22506,2.68106 2.53239,2.94905 2.92538,2.52956 1.50221,-1.63093 6.0212,-7.62361 6.37887,-8.45539 0.41066,-0.91793 0.39741,-5.4 0,-5.6963 -0.002,-0.002 0,-0.002 0,0 z" />
      <path
         d="m 183.46011,184.87895 7.34237,-14.5517 h 65.00349 v 14.5517 z"
         id="path40178"
         sodipodi:nodetypes="ccccc"
         style="font-size:22.4971px;line-height:1.25;font-family:'Elemental End';-inkscape-font-specification:'Elemental End';text-align:center;text-anchor:middle;fill:#000000;fill-opacity:1;fill-rule:evenodd;stroke-width:65.7051;stroke-miterlimit:12.5;stroke-dasharray:197.115, 65.7051;paint-order:fill markers stroke" />
      <path
         d="m 292.98121,134.35645 v 21.75515 h -7.68723 v -38.43666 h 7.86651 l 15.1952,29.90374 15.19563,-29.90374 h 7.86652 v 38.43666 h -7.68724 v -21.78076 l -11.04403,21.75515 v 0.0265 h -8.66133 z"
         id="path40270"
         style="font-size:11.8847px;line-height:1.25;font-family:'Elemental End';-inkscape-font-specification:'Elemental End';text-align:center;text-anchor:middle;fill:#000000;fill-rule:evenodd;stroke-width:34.7107;stroke-miterlimit:12.5;stroke-dasharray:104.132, 34.7107;paint-order:fill markers stroke" />
      <path
         id="path40272"
         style="font-size:11.8847px;line-height:1.25;font-family:'Elemental End';-inkscape-font-specification:'Elemental End';text-align:center;text-anchor:middle;fill:#000000;fill-rule:evenodd;stroke-width:34.7107;stroke-miterlimit:12.5;stroke-dasharray:104.132, 34.7107;paint-order:fill markers stroke"
         d="m 352.89112,117.67499 -16.68115,38.43641 h 8.37882 l 12.47934,-28.77602 12.50466,28.77602 h 8.3535 l -16.68167,-38.43641 z"
         sodipodi:nodetypes="cccccccc" />
      <path
         d="m 421.10358,148.42428 v 7.68732 h -25.62456 q -12.81206,0 -12.81206,-12.81219 v -12.81223 q 0,-12.81224 12.81206,-12.81224 h 25.62456 v 7.68732 H 396.5295 q -6.17531,0 -6.17531,6.14988 v 10.73665 q 0,6.17549 6.20093,6.17549 z"
         id="path40274"
         style="font-size:11.8847px;line-height:1.25;font-family:'Elemental End';-inkscape-font-specification:'Elemental End';text-align:center;text-anchor:middle;fill:#000000;fill-rule:evenodd;stroke-width:34.7107;stroke-miterlimit:12.5;stroke-dasharray:104.132, 34.7107;paint-order:fill markers stroke" />
      <path
         d="m 459.5402,133.04959 v -15.34904 l 7.68724,-0.0265 v 38.43666 h -7.68724 v -15.37465 h -23.06215 v 15.37465 h -7.68724 v -38.43666 h 7.68724 v 15.37464 z"
         id="path40276"
         style="font-size:11.8847px;line-height:1.25;font-family:'Elemental End';-inkscape-font-specification:'Elemental End';text-align:center;text-anchor:middle;fill:#000000;fill-rule:evenodd;stroke-width:34.7107;stroke-miterlimit:12.5;stroke-dasharray:104.132, 34.7107;paint-order:fill markers stroke" />
      <path
         d="m 482.60235,129.33407 v 26.77753 h -7.68768 v -38.43666 h 7.84134 l 22.90805,26.77754 v -26.77754 h 7.68767 V 156.1116 H 505.536 Z"
         id="path40278"
         style="font-size:11.8847px;line-height:1.25;font-family:'Elemental End';-inkscape-font-specification:'Elemental End';text-align:center;text-anchor:middle;fill:#000000;fill-rule:evenodd;stroke-width:34.7107;stroke-miterlimit:12.5;stroke-dasharray:104.132, 34.7107;paint-order:fill markers stroke" />
      <path
         d="m 528.72621,156.1116 h -7.68724 v -38.43666 h 7.68724 z"
         id="path40280"
         style="font-size:11.8847px;line-height:1.25;font-family:'Elemental End';-inkscape-font-specification:'Elemental End';text-align:center;text-anchor:middle;fill:#000000;fill-rule:evenodd;stroke-width:34.7107;stroke-miterlimit:12.5;stroke-dasharray:104.132, 34.7107;paint-order:fill markers stroke" />
      <path
         d="M 554.35077,142.88942 543.3063,156.1116 h -10.04476 l 16.06685,-19.21831 -16.06685,-19.21835 h 10.04476 l 11.04447,13.22223 11.04402,-13.22223 h 10.04476 l -16.0664,19.21835 16.0664,19.21831 h -10.04476 z"
         id="path40282"
         style="font-size:11.8847px;line-height:1.25;font-family:'Elemental End';-inkscape-font-specification:'Elemental End';text-align:center;text-anchor:middle;fill:#000000;fill-rule:evenodd;stroke-width:34.7107;stroke-miterlimit:12.5;stroke-dasharray:104.132, 34.7107;paint-order:fill markers stroke" />
      <path
         d="m 287.93764,167.70287 h 6.79306 v -2.25822 h -9.43672 v 13.7696 h 9.49148 v -2.25822 h -6.84782 v -3.65352 h 6.44422 v -2.16642 h -6.44422 z"
         id="path40285"
         style="font-weight:600;font-size:4.15779px;line-height:1.25;font-family:'Eurostile LT Std';-inkscape-font-specification:'Eurostile LT Std Semi-Bold';text-align:center;letter-spacing:1.91042px;text-anchor:middle;fill:#000000;fill-rule:evenodd;stroke-width:12.1432;stroke-miterlimit:12.5;stroke-dasharray:36.4294, 12.1432;paint-order:fill markers stroke" />
      <path
         d="m 315.61416,176.95603 h -0.0751 l -5.89315,-11.51138 h -4.36974 v 13.7696 h 2.64366 l -0.22078,-11.51138 h 0.0927 l 5.85694,11.51138 h 4.38785 v -13.7696 h -2.64366 z"
         id="path40287"
         style="font-weight:600;font-size:4.15779px;line-height:1.25;font-family:'Eurostile LT Std';-inkscape-font-specification:'Eurostile LT Std Semi-Bold';text-align:center;letter-spacing:1.91042px;text-anchor:middle;fill:#000000;fill-rule:evenodd;stroke-width:12.1432;stroke-miterlimit:12.5;stroke-dasharray:36.4294, 12.1432;paint-order:fill markers stroke" />
      <path
         d="m 334.18425,171.9072 v 2.00118 h 3.46983 v 0.4957 c 0,2.60701 -0.77097,2.66212 -3.28614,2.66212 -2.93774,0 -3.37842,-0.29364 -3.41507,-3.17619 v -3.15782 c 0.0442,-2.66212 0.33117,-3.13945 3.41507,-3.13945 2.29483,0 3.28614,-0.0177 3.28614,2.00118 h 2.62556 c 0.0927,-4.42463 -2.55226,-4.2594 -5.9117,-4.2594 -4.25979,0 -6.05873,0.8078 -6.05873,5.39767 v 3.15782 c 0,4.6633 1.65234,5.43436 6.05873,5.43436 4.90184,0 5.9298,-0.84449 5.9298,-4.92029 v -2.49688 z"
         id="path40289"
         style="font-weight:600;font-size:4.15779px;line-height:1.25;font-family:'Eurostile LT Std';-inkscape-font-specification:'Eurostile LT Std Semi-Bold';text-align:center;letter-spacing:1.91042px;text-anchor:middle;fill:#000000;fill-rule:evenodd;stroke-width:12.1432;stroke-miterlimit:12.5;stroke-dasharray:36.4294, 12.1432;paint-order:fill markers stroke" />
      <path
         d="m 353.32352,165.44465 h -2.64366 v 13.7696 h 2.64366 z"
         id="path40291"
         style="font-weight:600;font-size:4.15779px;line-height:1.25;font-family:'Eurostile LT Std';-inkscape-font-specification:'Eurostile LT Std Semi-Bold';text-align:center;letter-spacing:1.91042px;text-anchor:middle;fill:#000000;fill-rule:evenodd;stroke-width:12.1432;stroke-miterlimit:12.5;stroke-dasharray:36.4294, 12.1432;paint-order:fill markers stroke" />
      <path
         d="m 374.51917,176.95603 h -0.0751 l -5.89315,-11.51138 h -4.36974 v 13.7696 h 2.64366 l -0.22079,-11.51138 h 0.0927 l 5.85694,11.51138 h 4.38785 v -13.7696 h -2.64366 z"
         id="path40293"
         style="font-weight:600;font-size:4.15779px;line-height:1.25;font-family:'Eurostile LT Std';-inkscape-font-specification:'Eurostile LT Std Semi-Bold';text-align:center;letter-spacing:1.91042px;text-anchor:middle;fill:#000000;fill-rule:evenodd;stroke-width:12.1432;stroke-miterlimit:12.5;stroke-dasharray:36.4294, 12.1432;paint-order:fill markers stroke" />
      <path
         d="m 390.26191,167.70287 h 6.79306 v -2.25822 h -9.43672 v 13.7696 h 9.49147 v -2.25822 h -6.84781 v -3.65352 h 6.44422 v -2.16642 h -6.44422 z"
         id="path40295"
         style="font-weight:600;font-size:4.15779px;line-height:1.25;font-family:'Eurostile LT Std';-inkscape-font-specification:'Eurostile LT Std Semi-Bold';text-align:center;letter-spacing:1.91042px;text-anchor:middle;fill:#000000;fill-rule:evenodd;stroke-width:12.1432;stroke-miterlimit:12.5;stroke-dasharray:36.4294, 12.1432;paint-order:fill markers stroke" />
      <path
         d="m 410.0622,167.70287 h 6.79306 v -2.25822 h -9.43716 v 13.7696 h 9.49192 v -2.25822 h -6.84782 v -3.65352 h 6.44423 v -2.16642 h -6.44423 z"
         id="path40297"
         style="font-weight:600;font-size:4.15779px;line-height:1.25;font-family:'Eurostile LT Std';-inkscape-font-specification:'Eurostile LT Std Semi-Bold';text-align:center;letter-spacing:1.91042px;text-anchor:middle;fill:#000000;fill-rule:evenodd;stroke-width:12.1432;stroke-miterlimit:12.5;stroke-dasharray:36.4294, 12.1432;paint-order:fill markers stroke" />
      <path
         d="m 434.01146,174.66112 c 1.26685,0.0177 1.74419,0.82617 1.74419,1.98281 v 2.57032 h 2.64366 v -2.57032 c 0,-1.94612 -0.45879,-2.95589 -2.33148,-3.12113 v -0.0733 c 2.33148,-0.34883 2.44187,-1.83594 2.44187,-3.87382 0,-3.12112 -1.15691,-4.05742 -4.16751,-4.1309 h -7.03195 v 13.7696 h 2.6441 v -4.55313 z m -4.05712,-2.25822 v -4.70003 h 3.67163 c 1.89123,0 2.24007,0.34883 2.24007,2.29495 0,2.01951 -0.47733,2.40508 -2.42376,2.40508 z"
         id="path40299"
         style="font-weight:600;font-size:4.15779px;line-height:1.25;font-family:'Eurostile LT Std';-inkscape-font-specification:'Eurostile LT Std Semi-Bold';text-align:center;letter-spacing:1.91042px;text-anchor:middle;fill:#000000;fill-rule:evenodd;stroke-width:12.1432;stroke-miterlimit:12.5;stroke-dasharray:36.4294, 12.1432;paint-order:fill markers stroke" />
      <path
         d="m 451.73727,165.44465 h -2.64366 v 13.7696 h 2.64366 z"
         id="path40301"
         style="font-weight:600;font-size:4.15779px;line-height:1.25;font-family:'Eurostile LT Std';-inkscape-font-specification:'Eurostile LT Std Semi-Bold';text-align:center;letter-spacing:1.91042px;text-anchor:middle;fill:#000000;fill-rule:evenodd;stroke-width:12.1432;stroke-miterlimit:12.5;stroke-dasharray:36.4294, 12.1432;paint-order:fill markers stroke" />
      <path
         d="m 472.93292,176.95603 h -0.0751 l -5.89315,-11.51138 h -4.36974 v 13.7696 h 2.6441 l -0.22078,-11.51138 h 0.0927 l 5.85694,11.51138 h 4.38785 v -13.7696 h -2.64366 z"
         id="path40303"
         style="font-weight:600;font-size:4.15779px;line-height:1.25;font-family:'Eurostile LT Std';-inkscape-font-specification:'Eurostile LT Std Semi-Bold';text-align:center;letter-spacing:1.91042px;text-anchor:middle;fill:#000000;fill-rule:evenodd;stroke-width:12.1432;stroke-miterlimit:12.5;stroke-dasharray:36.4294, 12.1432;paint-order:fill markers stroke" />
      <path
         d="m 491.50301,171.9072 v 2.00118 h 3.46983 v 0.4957 c 0,2.60701 -0.77097,2.66212 -3.28614,2.66212 -2.93774,0 -3.37843,-0.29364 -3.41508,-3.17619 v -3.15782 c 0.0442,-2.66212 0.33118,-3.13945 3.41508,-3.13945 2.29482,0 3.28614,-0.0177 3.28614,2.00118 h 2.62556 c 0.0927,-4.42463 -2.55226,-4.2594 -5.9117,-4.2594 -4.25935,0 -6.05874,0.8078 -6.05874,5.39767 v 3.15782 c 0,4.6633 1.65235,5.43436 6.05874,5.43436 4.90183,0 5.9298,-0.84449 5.9298,-4.92029 v -2.49688 z"
         id="path40305"
         style="font-weight:600;font-size:4.15779px;line-height:1.25;font-family:'Eurostile LT Std';-inkscape-font-specification:'Eurostile LT Std Semi-Bold';text-align:center;letter-spacing:1.91042px;text-anchor:middle;fill:#000000;fill-rule:evenodd;stroke-width:12.1432;stroke-miterlimit:12.5;stroke-dasharray:36.4294, 12.1432;paint-order:fill markers stroke" />
      <path
         d="m 205.48767,141.22381 h 50.3183 v 14.55174 H 198.1453 Z"
         id="path1971"
         sodipodi:nodetypes="ccccc"
         style="font-size:22.4971px;line-height:1.25;font-family:'Elemental End';-inkscape-font-specification:'Elemental End';text-align:center;text-anchor:middle;fill:#000000;fill-opacity:1;fill-rule:evenodd;stroke-width:65.7051;stroke-miterlimit:12.5;stroke-dasharray:197.115, 65.7051;paint-order:fill markers stroke" />
    </g>
    <g
       id="g3755">
      <g
         id="g4381"
         transform="matrix(1.7708713,0,0,1.7708713,-682.91288,-218.61929)"
         inkscape:export-filename="LOGO JPG FILE.png"
         inkscape:export-xdpi="96"
         inkscape:export-ydpi="96" />
    </g>
  </g>
</svg>
