<svg width="64" height="64" viewBox="0 0 64 64" fill="none" xmlns="http://www.w3.org/2000/svg" role="img" aria-label="CNC machine loader">
<rect x="9" y="11" width="46" height="40" rx="6" fill="#222222"/>
<rect x="14" y="16" width="36" height="30" rx="3" fill="#ffffff"/>
<rect x="18" y="20" width="19" height="18" rx="2" fill="#222222"/>
<path d="M40 20H47V38H40V20Z" fill="#222222"/>
<path d="M23 26H32" stroke="#ffffff" stroke-width="2" stroke-linecap="round"/>
<path d="M23 31H29" stroke="#ffffff" stroke-width="2" stroke-linecap="round"/>
<path d="M43.5 23.5V30.5" stroke="#ffffff" stroke-width="2" stroke-linecap="round"/>
<path d="M40 34H47" stroke="#ffffff" stroke-width="2" stroke-linecap="round"/>
<path d="M12 51H52" stroke="#222222" stroke-width="4" stroke-linecap="round"/>
<path d="M26 51V56" stroke="#222222" stroke-width="4" stroke-linecap="round"/>
<path d="M38 51V56" stroke="#222222" stroke-width="4" stroke-linecap="round"/>
<path d="M32 13V8" stroke="#222222" stroke-width="4" stroke-linecap="round"/>
<path d="M24 8H40" stroke="#222222" stroke-width="4" stroke-linecap="round"/>
<path d="M32 38L36 44H28L32 38Z" fill="#FF9900"/>
<circle cx="48" cy="14" r="6" fill="#222222"/>
<path d="M48 10V18M44 14H52" stroke="#ffffff" stroke-width="1.8" stroke-linecap="round"/>
</svg>
